<svg id="mmd1790328722882" width="100%" xmlns="http://www.w3.org/2000/svg" class="flowchart" style="max-width: 1320.21875px;" viewBox="0 0 1320.21875 1770.3599853515625" role="graphics-document document" aria-roledescription="flowchart-v2"><style>#mmd1790328722882{font-family:"trebuchet ms",verdana,arial,sans-serif;font-size:16px;fill:#333;}#mmd1790328722882 .error-icon{fill:#552222;}#mmd1790328722882 .error-text{fill:#552222;stroke:#552222;}#mmd1790328722882 .edge-thickness-normal{stroke-width:1px;}#mmd1790328722882 .edge-thickness-thick{stroke-width:3.5px;}#mmd1790328722882 .edge-pattern-solid{stroke-dasharray:0;}#mmd1790328722882 .edge-thickness-invisible{stroke-width:0;fill:none;}#mmd1790328722882 .edge-pattern-dashed{stroke-dasharray:3;}#mmd1790328722882 .edge-pattern-dotted{stroke-dasharray:2;}#mmd1790328722882 .marker{fill:#333333;stroke:#333333;}#mmd1790328722882 .marker.cross{stroke:#333333;}#mmd1790328722882 svg{font-family:"trebuchet ms",verdana,arial,sans-serif;font-size:16px;}#mmd1790328722882 p{margin:0;}#mmd1790328722882 .label{font-family:"trebuchet ms",verdana,arial,sans-serif;color:#333;}#mmd1790328722882 .cluster-label text{fill:#333;}#mmd1790328722882 .cluster-label span{color:#333;}#mmd1790328722882 .cluster-label span p{background-color:transparent;}#mmd1790328722882 .label text,#mmd1790328722882 span{fill:#333;color:#333;}#mmd1790328722882 .node rect,#mmd1790328722882 .node circle,#mmd1790328722882 .node ellipse,#mmd1790328722882 .node polygon,#mmd1790328722882 .node path{fill:#ECECFF;stroke:#9370DB;stroke-width:1px;}#mmd1790328722882 .rough-node .label text,#mmd1790328722882 .node .label text,#mmd1790328722882 .image-shape .label,#mmd1790328722882 .icon-shape .label{text-anchor:middle;}#mmd1790328722882 .node .katex path{fill:#000;stroke:#000;stroke-width:1px;}#mmd1790328722882 .rough-node .label,#mmd1790328722882 .node .label,#mmd1790328722882 .image-shape .label,#mmd1790328722882 .icon-shape .label{text-align:center;}#mmd1790328722882 .node.clickable{cursor:pointer;}#mmd1790328722882 .root .anchor path{fill:#333333!important;stroke-width:0;stroke:#333333;}#mmd1790328722882 .arrowheadPath{fill:#333333;}#mmd1790328722882 .edgePath .path{stroke:#333333;stroke-width:2.0px;}#mmd1790328722882 .flowchart-link{stroke:#333333;fill:none;}#mmd1790328722882 .edgeLabel{background-color:rgba(232,232,232, 0.8);text-align:center;}#mmd1790328722882 .edgeLabel p{background-color:rgba(232,232,232, 0.8);}#mmd1790328722882 .edgeLabel rect{opacity:0.5;background-color:rgba(232,232,232, 0.8);fill:rgba(232,232,232, 0.8);}#mmd1790328722882 .labelBkg{background-color:rgba(232, 232, 232, 0.5);}#mmd1790328722882 .cluster rect{fill:#ffffde;stroke:#aaaa33;stroke-width:1px;}#mmd1790328722882 .cluster text{fill:#333;}#mmd1790328722882 .cluster span{color:#333;}#mmd1790328722882 div.mermaidTooltip{position:absolute;text-align:center;max-width:200px;padding:2px;font-family:"trebuchet ms",verdana,arial,sans-serif;font-size:12px;background:hsl(80, 100%, 96.2745098039%);border:1px solid #aaaa33;border-radius:2px;pointer-events:none;z-index:100;}#mmd1790328722882 .flowchartTitleText{text-anchor:middle;font-size:18px;fill:#333;}#mmd1790328722882 rect.text{fill:none;stroke-width:0;}#mmd1790328722882 .icon-shape,#mmd1790328722882 .image-shape{background-color:rgba(232,232,232, 0.8);text-align:center;}#mmd1790328722882 .icon-shape p,#mmd1790328722882 .image-shape p{background-color:rgba(232,232,232, 0.8);padding:2px;}#mmd1790328722882 .icon-shape rect,#mmd1790328722882 .image-shape rect{opacity:0.5;background-color:rgba(232,232,232, 0.8);fill:rgba(232,232,232, 0.8);}#mmd1790328722882 :root{--mermaid-font-family:"trebuchet ms",verdana,arial,sans-serif;}</style><g><marker id="mmd1790328722882_flowchart-v2-pointEnd" class="marker flowchart-v2" viewBox="0 0 10 10" refX="5" refY="5" markerUnits="userSpaceOnUse" markerWidth="8" markerHeight="8" orient="auto"><path d="M 0 0 L 10 5 L 0 10 z" class="arrowMarkerPath" style="stroke-width: 1; stroke-dasharray: 1, 0;"></path></marker><marker id="mmd1790328722882_flowchart-v2-pointStart" class="marker flowchart-v2" viewBox="0 0 10 10" refX="4.5" refY="5" markerUnits="userSpaceOnUse" markerWidth="8" markerHeight="8" orient="auto"><path d="M 0 5 L 10 10 L 10 0 z" class="arrowMarkerPath" style="stroke-width: 1; stroke-dasharray: 1, 0;"></path></marker><marker id="mmd1790328722882_flowchart-v2-circleEnd" class="marker flowchart-v2" viewBox="0 0 10 10" refX="11" refY="5" markerUnits="userSpaceOnUse" markerWidth="11" markerHeight="11" orient="auto"><circle cx="5" cy="5" r="5" class="arrowMarkerPath" style="stroke-width: 1; stroke-dasharray: 1, 0;"></circle></marker><marker id="mmd1790328722882_flowchart-v2-circleStart" class="marker flowchart-v2" viewBox="0 0 10 10" refX="-1" refY="5" markerUnits="userSpaceOnUse" markerWidth="11" markerHeight="11" orient="auto"><circle cx="5" cy="5" r="5" class="arrowMarkerPath" style="stroke-width: 1; stroke-dasharray: 1, 0;"></circle></marker><marker id="mmd1790328722882_flowchart-v2-crossEnd" class="marker cross flowchart-v2" viewBox="0 0 11 11" refX="12" refY="5.2" markerUnits="userSpaceOnUse" markerWidth="11" markerHeight="11" orient="auto"><path d="M 1,1 l 9,9 M 10,1 l -9,9" class="arrowMarkerPath" style="stroke-width: 2; stroke-dasharray: 1, 0;"></path></marker><marker id="mmd1790328722882_flowchart-v2-crossStart" class="marker cross flowchart-v2" viewBox="0 0 11 11" refX="-1" refY="5.2" markerUnits="userSpaceOnUse" markerWidth="11" markerHeight="11" orient="auto"><path d="M 1,1 l 9,9 M 10,1 l -9,9" class="arrowMarkerPath" style="stroke-width: 2; stroke-dasharray: 1, 0;"></path></marker><g class="root"><g class="clusters"><g class="cluster " id="WAREHOUSE" data-look="classic"><rect style="" x="35.3984375" y="940.4264678955078" width="274.421875" height="159.54105377197266"></rect><g class="cluster-label " transform="translate(72.609375, 940.4264678955078)"><foreignObject width="200" height="72"><div xmlns="http://www.w3.org/1999/xhtml" style="display: table; white-space: break-spaces; line-height: 1.5; max-width: 200px; text-align: center; width: 200px;"><span class="nodeLabel "><p>Warehouse: query engine + storage (BigQuery couples, Trino decouples)</p></span></div></foreignObject></g></g><g class="cluster " id="LAKE" data-look="classic"><rect style="" x="30.109375" y="482" width="285" height="184.4264678955078"></rect><g class="cluster-label " transform="translate(89.015625, 482)"><foreignObject width="167.1875" height="24"><div xmlns="http://www.w3.org/1999/xhtml" style="display: table-cell; white-space: nowrap; line-height: 1.5; max-width: 200px; text-align: center;"><span class="nodeLabel "><p>Cold storage: GCS / S3</p></span></div></foreignObject></g></g><g class="cluster " id="CLUSTER" data-look="classic"><rect style="" x="357.21875" y="8" width="660" height="1754.3599548339844"></rect><g class="cluster-label " transform="translate(661.875, 8)"><foreignObject width="50.6875" height="24"><div xmlns="http://www.w3.org/1999/xhtml" style="display: table-cell; white-space: nowrap; line-height: 1.5; max-width: 200px; text-align: center;"><span class="nodeLabel "><p>Cluster</p></span></div></foreignObject></g></g><g class="cluster " id="NODES" data-look="classic"><rect style="" x="8" y="8" width="329.21875" height="400"></rect><g class="cluster-label " transform="translate(109.8984375, 8)"><foreignObject width="125.421875" height="24"><div xmlns="http://www.w3.org/1999/xhtml" style="display: table-cell; white-space: nowrap; line-height: 1.5; max-width: 200px; text-align: center;"><span class="nodeLabel "><p>Blockchain nodes</p></span></div></foreignObject></g></g></g><g class="edgePaths"><path d="M172.609,159L172.609,173.167C172.609,187.333,172.609,215.667,208.564,238.884C244.519,262.1,316.43,280.201,352.385,289.251L388.34,298.301" id="L_MAIN_ING_0" class=" edge-thickness-normal edge-pattern-solid edge-thickness-normal edge-pattern-solid flowchart-link" style="" marker-end="url(#mmd1790328722882_flowchart-v2-pointEnd)"></path><path d="M172.609,371L172.609,377.167C172.609,383.333,172.609,395.667,172.609,408C172.609,420.333,172.609,432.667,172.609,445C172.609,457.333,172.609,469.667,172.609,479.333C172.609,489,172.609,496,172.609,499.5L172.609,503" id="L_ARCH_RAW_1" class=" edge-thickness-normal edge-pattern-dotted edge-thickness-normal edge-pattern-solid flowchart-link" style="" marker-end="url(#mmd1790328722882_flowchart-v2-pointEnd)"></path><path d="M522.219,383L522.219,387.167C522.219,391.333,522.219,399.667,522.219,410C522.219,420.333,522.219,432.667,522.219,445C522.219,457.333,522.219,469.667,482.512,486.306C442.805,502.946,363.391,523.893,323.684,534.366L283.977,544.839" id="L_ING_RAW_2" class=" edge-thickness-normal edge-pattern-solid edge-thickness-normal edge-pattern-solid flowchart-link" style="" marker-end="url(#mmd1790328722882_flowchart-v2-pointEnd)"></path><path d="M172.609,641.426L172.609,645.593C172.609,649.76,172.609,658.093,229.211,666.426C285.813,674.76,399.016,683.093,460.843,691.036C522.671,698.979,533.123,706.531,538.349,710.308L543.575,714.084" id="L_RAW_DBT_3" class=" edge-thickness-normal edge-pattern-solid edge-thickness-normal edge-pattern-solid flowchart-link" style="" marker-end="url(#mmd1790328722882_flowchart-v2-pointEnd)"></path><path d="M667.219,890.426L667.219,894.593C667.219,898.76,667.219,907.093,667.219,915.426C667.219,923.76,667.219,932.093,602.477,946.701C537.736,961.309,408.252,982.193,343.511,992.634L278.769,1003.076" id="L_DBT_GOLD_4" class=" edge-thickness-normal edge-pattern-solid edge-thickness-normal edge-pattern-solid flowchart-link" style="" marker-end="url(#mmd1790328722882_flowchart-v2-pointEnd)"></path><path d="M172.609,1074.968L172.609,1079.134C172.609,1083.301,172.609,1091.634,230.878,1099.968C289.146,1108.301,405.682,1116.634,481.253,1128.086C556.823,1139.538,591.428,1154.108,608.73,1161.393L626.032,1168.678" id="L_GOLD_REV_5" class=" edge-thickness-normal edge-pattern-solid edge-thickness-normal edge-pattern-solid flowchart-link" style="" marker-end="url(#mmd1790328722882_flowchart-v2-pointEnd)"></path><path d="M759.719,1299.968L759.719,1304.134C759.719,1308.301,759.719,1316.634,687.461,1331.567C615.204,1346.501,470.69,1368.034,398.432,1378.801L326.175,1389.567" id="L_REV_CHDB_6" class=" edge-thickness-normal edge-pattern-solid edge-thickness-normal edge-pattern-solid flowchart-link" style="" marker-end="url(#mmd1790328722882_flowchart-v2-pointEnd)"></path><path d="M322.219,1427.391L357.219,1436.553C392.219,1445.714,462.219,1464.037,532.375,1480.23C602.531,1496.422,672.843,1510.485,708,1517.516L743.156,1524.547" id="L_CHDB_API_7" class=" edge-thickness-normal edge-pattern-solid edge-thickness-normal edge-pattern-solid flowchart-link" style="" marker-end="url(#mmd1790328722882_flowchart-v2-pointEnd)"></path><path d="M852.219,1585.36L852.219,1589.527C852.219,1593.693,852.219,1602.027,852.219,1609.693C852.219,1617.36,852.219,1624.36,852.219,1627.86L852.219,1631.36" id="L_API_PORT_8" class=" edge-thickness-normal edge-pattern-solid edge-thickness-normal edge-pattern-solid flowchart-link" style="" marker-end="url(#mmd1790328722882_flowchart-v2-pointEnd)"></path><path d="M687.219,207L687.219,213.167C687.219,219.333,687.219,231.667,687.219,252.5C687.219,273.333,687.219,302.667,687.219,330C687.219,357.333,687.219,382.667,687.219,401.5C687.219,420.333,687.219,432.667,687.219,445C687.219,457.333,687.219,469.667,687.219,491.202C687.219,512.738,687.219,543.475,687.219,574.213C687.219,604.951,687.219,635.689,687.219,655.224C687.219,674.76,687.219,683.093,686.592,690.77C685.965,698.447,684.711,705.468,684.084,708.978L683.458,712.489" id="L_ORCH_DBT_9" class=" edge-thickness-normal edge-pattern-dotted edge-thickness-normal edge-pattern-solid flowchart-link" style="" marker-end="url(#mmd1790328722882_flowchart-v2-pointEnd)"></path><path d="M788.953,207L796.164,213.167C803.375,219.333,817.797,231.667,825.008,252.5C832.219,273.333,832.219,302.667,832.219,330C832.219,357.333,832.219,382.667,832.219,401.5C832.219,420.333,832.219,432.667,832.219,445C832.219,457.333,832.219,469.667,832.219,491.202C832.219,512.738,832.219,543.475,832.219,574.213C832.219,604.951,832.219,635.689,832.219,655.224C832.219,674.76,832.219,683.093,832.219,705.926C832.219,728.76,832.219,766.093,832.219,803.426C832.219,840.76,832.219,878.093,832.219,900.926C832.219,923.76,832.219,932.093,832.219,949.555C832.219,967.017,832.219,993.607,832.219,1020.197C832.219,1046.787,832.219,1073.377,832.219,1090.839C832.219,1108.301,832.219,1116.634,829.589,1124.428C826.96,1132.221,821.701,1139.475,819.071,1143.102L816.442,1146.729" id="L_ORCH_REV_10" class=" edge-thickness-normal edge-pattern-dotted edge-thickness-normal edge-pattern-solid flowchart-link" style="" marker-end="url(#mmd1790328722882_flowchart-v2-pointEnd)"></path><path d="M557.219,181.8L535.412,192.167C513.605,202.534,469.992,223.267,425.265,241.582C380.537,259.896,334.696,275.793,311.775,283.741L288.855,291.689" id="L_ORCH_ARCH_11" class=" edge-thickness-normal edge-pattern-dotted edge-thickness-normal edge-pattern-solid flowchart-link" style="" marker-end="url(#mmd1790328722882_flowchart-v2-pointEnd)"></path><path d="M1052.219,144.424L963.885,161.02C875.552,177.616,698.885,210.808,610.552,232.904C522.219,255,522.219,266,522.219,271.5L522.219,277" id="L_MON_ING_12" class=" edge-thickness-normal edge-pattern-dotted edge-thickness-normal edge-pattern-solid flowchart-link" style="" marker-end="url(#mmd1790328722882_flowchart-v2-pointEnd)"></path><path d="M1052.219,157.272L1001.802,171.726C951.385,186.181,850.552,215.091,800.135,244.212C749.719,273.333,749.719,302.667,749.719,330C749.719,357.333,749.719,382.667,749.719,401.5C749.719,420.333,749.719,432.667,749.719,445C749.719,457.333,749.719,469.667,749.719,491.202C749.719,512.738,749.719,543.475,749.719,574.213C749.719,604.951,749.719,635.689,749.719,655.224C749.719,674.76,749.719,683.093,747.045,690.89C744.371,698.686,739.024,705.946,736.35,709.576L733.676,713.206" id="L_MON_DBT_13" class=" edge-thickness-normal edge-pattern-dotted edge-thickness-normal edge-pattern-solid flowchart-link" style="" marker-end="url(#mmd1790328722882_flowchart-v2-pointEnd)"></path><path d="M1101.231,159L1071.812,173.167C1042.393,187.333,983.556,215.667,954.137,244.5C924.719,273.333,924.719,302.667,924.719,330C924.719,357.333,924.719,382.667,924.719,401.5C924.719,420.333,924.719,432.667,924.719,445C924.719,457.333,924.719,469.667,924.719,491.202C924.719,512.738,924.719,543.475,924.719,574.213C924.719,604.951,924.719,635.689,924.719,655.224C924.719,674.76,924.719,683.093,924.719,705.926C924.719,728.76,924.719,766.093,924.719,803.426C924.719,840.76,924.719,878.093,924.719,900.926C924.719,923.76,924.719,932.093,924.719,949.555C924.719,967.017,924.719,993.607,924.719,1020.197C924.719,1046.787,924.719,1073.377,924.719,1090.839C924.719,1108.301,924.719,1116.634,924.719,1137.468C924.719,1158.301,924.719,1191.634,924.719,1224.968C924.719,1258.301,924.719,1291.634,924.719,1321.417C924.719,1351.2,924.719,1377.432,924.719,1403.664C924.719,1429.896,924.719,1456.128,920.498,1472.969C916.278,1489.811,907.838,1497.262,903.617,1500.987L899.397,1504.713" id="L_MON_API_14" class=" edge-thickness-normal edge-pattern-dotted edge-thickness-normal edge-pattern-solid flowchart-link" style="" marker-end="url(#mmd1790328722882_flowchart-v2-pointEnd)"></path></g><g class="edgeLabels"><g class="edgeLabel"><g class="label" transform="translate(0, 0)"><foreignObject width="0" height="0"><div xmlns="http://www.w3.org/1999/xhtml" class="labelBkg" style="display: table-cell; white-space: nowrap; line-height: 1.5; max-width: 200px; text-align: center;"><span class="edgeLabel "></span></div></foreignObject></g></g><g class="edgeLabel" transform="translate(172.609375, 445)"><g class="label" transform="translate(-76.921875, -12)"><foreignObject width="153.84375" height="24"><div xmlns="http://www.w3.org/1999/xhtml" class="labelBkg" style="display: table-cell; white-space: nowrap; line-height: 1.5; max-width: 200px; text-align: center;"><span class="edgeLabel "><p>backfill / reprocessing</p></span></div></foreignObject></g></g><g class="edgeLabel"><g class="label" transform="translate(0, 0)"><foreignObject width="0" height="0"><div xmlns="http://www.w3.org/1999/xhtml" class="labelBkg" style="display: table-cell; white-space: nowrap; line-height: 1.5; max-width: 200px; text-align: center;"><span class="edgeLabel "></span></div></foreignObject></g></g><g class="edgeLabel"><g class="label" transform="translate(0, 0)"><foreignObject width="0" height="0"><div xmlns="http://www.w3.org/1999/xhtml" class="labelBkg" style="display: table-cell; white-space: nowrap; line-height: 1.5; max-width: 200px; text-align: center;"><span class="edgeLabel "></span></div></foreignObject></g></g><g class="edgeLabel"><g class="label" transform="translate(0, 0)"><foreignObject width="0" height="0"><div xmlns="http://www.w3.org/1999/xhtml" class="labelBkg" style="display: table-cell; white-space: nowrap; line-height: 1.5; max-width: 200px; text-align: center;"><span class="edgeLabel "></span></div></foreignObject></g></g><g class="edgeLabel"><g class="label" transform="translate(0, 0)"><foreignObject width="0" height="0"><div xmlns="http://www.w3.org/1999/xhtml" class="labelBkg" style="display: table-cell; white-space: nowrap; line-height: 1.5; max-width: 200px; text-align: center;"><span class="edgeLabel "></span></div></foreignObject></g></g><g class="edgeLabel"><g class="label" transform="translate(0, 0)"><foreignObject width="0" height="0"><div xmlns="http://www.w3.org/1999/xhtml" class="labelBkg" style="display: table-cell; white-space: nowrap; line-height: 1.5; max-width: 200px; text-align: center;"><span class="edgeLabel "></span></div></foreignObject></g></g><g class="edgeLabel"><g class="label" transform="translate(0, 0)"><foreignObject width="0" height="0"><div xmlns="http://www.w3.org/1999/xhtml" class="labelBkg" style="display: table-cell; white-space: nowrap; line-height: 1.5; max-width: 200px; text-align: center;"><span class="edgeLabel "></span></div></foreignObject></g></g><g class="edgeLabel"><g class="label" transform="translate(0, 0)"><foreignObject width="0" height="0"><div xmlns="http://www.w3.org/1999/xhtml" class="labelBkg" style="display: table-cell; white-space: nowrap; line-height: 1.5; max-width: 200px; text-align: center;"><span class="edgeLabel "></span></div></foreignObject></g></g><g class="edgeLabel"><g class="label" transform="translate(0, 0)"><foreignObject width="0" height="0"><div xmlns="http://www.w3.org/1999/xhtml" class="labelBkg" style="display: table-cell; white-space: nowrap; line-height: 1.5; max-width: 200px; text-align: center;"><span class="edgeLabel "></span></div></foreignObject></g></g><g class="edgeLabel"><g class="label" transform="translate(0, 0)"><foreignObject width="0" height="0"><div xmlns="http://www.w3.org/1999/xhtml" class="labelBkg" style="display: table-cell; white-space: nowrap; line-height: 1.5; max-width: 200px; text-align: center;"><span class="edgeLabel "></span></div></foreignObject></g></g><g class="edgeLabel"><g class="label" transform="translate(0, 0)"><foreignObject width="0" height="0"><div xmlns="http://www.w3.org/1999/xhtml" class="labelBkg" style="display: table-cell; white-space: nowrap; line-height: 1.5; max-width: 200px; text-align: center;"><span class="edgeLabel "></span></div></foreignObject></g></g><g class="edgeLabel" transform="translate(522.21875, 244)"><g class="label" transform="translate(-26.6796875, -12)"><foreignObject width="53.359375" height="24"><div xmlns="http://www.w3.org/1999/xhtml" class="labelBkg" style="display: table-cell; white-space: nowrap; line-height: 1.5; max-width: 200px; text-align: center;"><span class="edgeLabel "><p>collects</p></span></div></foreignObject></g></g><g class="edgeLabel"><g class="label" transform="translate(0, 0)"><foreignObject width="0" height="0"><div xmlns="http://www.w3.org/1999/xhtml" class="labelBkg" style="display: table-cell; white-space: nowrap; line-height: 1.5; max-width: 200px; text-align: center;"><span class="edgeLabel "></span></div></foreignObject></g></g><g class="edgeLabel"><g class="label" transform="translate(0, 0)"><foreignObject width="0" height="0"><div xmlns="http://www.w3.org/1999/xhtml" class="labelBkg" style="display: table-cell; white-space: nowrap; line-height: 1.5; max-width: 200px; text-align: center;"><span class="edgeLabel "></span></div></foreignObject></g></g></g><g class="nodes"><g class="node default  " id="flowchart-MAIN-0" transform="translate(172.609375, 120)"><rect class="basic label-container" style="" x="-117.1484375" y="-39" width="234.296875" height="78"></rect><g class="label" style="" transform="translate(-87.1484375, -24)"><rect></rect><foreignObject width="174.296875" height="48"><div xmlns="http://www.w3.org/1999/xhtml" style="display: table-cell; white-space: nowrap; line-height: 1.5; max-width: 200px; text-align: center;"><span class="nodeLabel "><p>Main node / provider<br/>(QuickNode, bare metal)</p></span></div></foreignObject></g></g><g class="node default  " id="flowchart-ARCH-1" transform="translate(172.609375, 332)"><rect class="basic label-container" style="" x="-129.609375" y="-39" width="259.21875" height="78"></rect><g class="label" style="" transform="translate(-99.609375, -24)"><rect></rect><foreignObject width="199.21875" height="48"><div xmlns="http://www.w3.org/1999/xhtml" style="display: table-cell; white-space: nowrap; line-height: 1.5; max-width: 200px; text-align: center;"><span class="nodeLabel "><p>Archive node / historical API<br/>(backfill &amp; DR)</p></span></div></foreignObject></g></g><g class="node default  " id="flowchart-ING-2" transform="translate(522.21875, 332)"><rect class="basic label-container" style="" x="-130" y="-51" width="260" height="102"></rect><g class="label" style="" transform="translate(-100, -36)"><rect></rect><foreignObject width="200" height="72"><div xmlns="http://www.w3.org/1999/xhtml" style="display: table; white-space: break-spaces; line-height: 1.5; max-width: 200px; text-align: center; width: 200px;"><span class="nodeLabel "><p>Polling / listener service<br/>(raw EVM tables as raw as possible)</p></span></div></foreignObject></g></g><g class="node default  " id="flowchart-ORCH-3" transform="translate(687.21875, 120)"><rect class="basic label-container" style="" x="-130" y="-87" width="260" height="174"></rect><g class="label" style="" transform="translate(-100, -72)"><rect></rect><foreignObject width="200" height="144"><div xmlns="http://www.w3.org/1999/xhtml" style="display: table; white-space: break-spaces; line-height: 1.5; max-width: 200px; text-align: center; width: 200px;"><span class="nodeLabel "><p>Orchestrator: Prefect / Airflow<br/>schedules dbt incremental runs,<br/>backfills &amp; migrations, switchover jobs</p></span></div></foreignObject></g></g><g class="node default  " id="flowchart-DBT-4" transform="translate(667.21875, 803.4264678955078)"><rect class="basic label-container" style="" x="-130" y="-87" width="260" height="174"></rect><g class="label" style="" transform="translate(-100, -72)"><rect></rect><foreignObject width="200" height="144"><div xmlns="http://www.w3.org/1999/xhtml" style="display: table; white-space: break-spaces; line-height: 1.5; max-width: 200px; text-align: center; width: 200px;"><span class="nodeLabel "><p>Semantic layer: dbt<br/>bronze -&gt; silver -&gt; gold (datamart)<br/>incremental + partitioned tables<br/>(partition overwrite / merge)</p></span></div></foreignObject></g></g><g class="node default  " id="flowchart-REV-5" transform="translate(759.71875, 1224.9675216674805)"><rect class="basic label-container" style="" x="-130" y="-75" width="260" height="150"></rect><g class="label" style="" transform="translate(-100, -60)"><rect></rect><foreignObject width="200" height="120"><div xmlns="http://www.w3.org/1999/xhtml" style="display: table; white-space: break-spaces; line-height: 1.5; max-width: 200px; text-align: center; width: 200px;"><span class="nodeLabel "><p>Reverse ETL to serving db<br/>watermark batch push, additive schema sync,<br/>blue-green fill -&gt; parity -&gt; atomic swap</p></span></div></foreignObject></g></g><g class="node default  " id="flowchart-API-6" transform="translate(852.21875, 1546.3599548339844)"><rect class="basic label-container" style="" x="-105.140625" y="-39" width="210.28125" height="78"></rect><g class="label" style="" transform="translate(-75.140625, -24)"><rect></rect><foreignObject width="150.28125" height="48"><div xmlns="http://www.w3.org/1999/xhtml" style="display: table-cell; white-space: nowrap; line-height: 1.5; max-width: 200px; text-align: center;"><span class="nodeLabel "><p>API services + cache<br/>(versioned views /v2)</p></span></div></foreignObject></g></g><g class="node default  " id="flowchart-PORT-7" transform="translate(852.21875, 1686.3599548339844)"><rect class="basic label-container" style="" x="-130" y="-51" width="260" height="102"></rect><g class="label" style="" transform="translate(-100, -36)"><rect></rect><foreignObject width="200" height="72"><div xmlns="http://www.w3.org/1999/xhtml" style="display: table; white-space: break-spaces; line-height: 1.5; max-width: 200px; text-align: center; width: 200px;"><span class="nodeLabel "><p>Synthetic portfolios / rebalancing agent<br/>($NANSEN500-style)</p></span></div></foreignObject></g></g><g class="node default  " id="flowchart-RAW-8" transform="translate(172.609375, 574.2132339477539)"><path d="M0,15.808823529411764 a107.5,15.808823529411764 0,0,0 215,0 a107.5,15.808823529411764 0,0,0 -215,0 l0,102.80882352941177 a107.5,15.808823529411764 0,0,0 215,0 l0,-102.80882352941177" class="basic label-container" style="" label-offset-y="15.808823529411764" transform="translate(-107.5, -67.21323529411765)"></path><g class="label" style="" transform="translate(-100, -26)"><rect></rect><foreignObject width="200" height="72"><div xmlns="http://www.w3.org/1999/xhtml" style="display: table; white-space: break-spaces; line-height: 1.5; max-width: 200px; text-align: center; width: 200px;"><span class="nodeLabel "><p>Raw: Parquet / Iceberg<br/>transactions · logs · traces · transfers</p></span></div></foreignObject></g></g><g class="node default  " id="flowchart-GOLD-9" transform="translate(172.609375, 1020.1969947814941)"><path d="M0,15.5136840108144 a102.2109375,15.5136840108144 0,0,0 204.421875,0 a102.2109375,15.5136840108144 0,0,0 -204.421875,0 l0,78.5136840108144 a102.2109375,15.5136840108144 0,0,0 204.421875,0 l0,-78.5136840108144" class="basic label-container" style="" label-offset-y="15.5136840108144" transform="translate(-102.2109375, -54.7705260162216)"></path><g class="label" style="" transform="translate(-94.7109375, -14)"><rect></rect><foreignObject width="189.421875" height="48"><div xmlns="http://www.w3.org/1999/xhtml" style="display: table-cell; white-space: nowrap; line-height: 1.5; max-width: 200px; text-align: center;"><span class="nodeLabel "><p>Datamart / gold<br/>rolling, timestamped labels</p></span></div></foreignObject></g></g><g class="node default  " id="flowchart-CHDB-10" transform="translate(231.5703125, 1403.6637382507324)"><path d="M0,14.797479977554456 a90.6484375,14.797479977554456 0,0,0 181.296875,0 a90.6484375,14.797479977554456 0,0,0 -181.296875,0 l0,77.79747997755446 a90.6484375,14.797479977554456 0,0,0 181.296875,0 l0,-77.79747997755446" class="basic label-container" style="" label-offset-y="14.797479977554456" transform="translate(-90.6484375, -53.69621996633168)"></path><g class="label" style="" transform="translate(-83.1484375, -14)"><rect></rect><foreignObject width="166.296875" height="48"><div xmlns="http://www.w3.org/1999/xhtml" style="display: table-cell; white-space: nowrap; line-height: 1.5; max-width: 200px; text-align: center;"><span class="nodeLabel "><p>Serving db: ClickHouse<br/>_v1 / _v2 tables</p></span></div></foreignObject></g></g><g class="node default  " id="flowchart-MON-11" transform="translate(1182.21875, 120)"><rect class="basic label-container" style="" x="-130" y="-39" width="260" height="78"></rect><g class="label" style="" transform="translate(-100, -24)"><rect></rect><foreignObject width="200" height="48"><div xmlns="http://www.w3.org/1999/xhtml" style="display: table; white-space: break-spaces; line-height: 1.5; max-width: 200px; text-align: center; width: 200px;"><span class="nodeLabel "><p>Monitoring (ingestion, DQ, jobs, alerting)</p></span></div></foreignObject></g></g></g></g></g></svg>